<svg width="38" height="47" viewBox="0 0 38 47" fill="none" xmlns="http://www.w3.org/2000/svg">
<path fill-rule="evenodd" clip-rule="evenodd" d="M28.3143 0.0527344C25.9894 0.150234 23.1723 1.60133 21.505 3.55213C20.0062 5.28463 18.6979 8.04953 19.0506 10.7006C21.6463 10.9037 24.2912 9.38323 25.907 7.43143C27.5195 5.47613 28.6113 2.76253 28.3143 0.0527344ZM27.6571 46.1911C30.8072 46.1324 32.8024 43.3333 34.7312 40.5169C36.8445 37.4322 37.7778 34.4414 37.9171 33.995C37.9248 33.9701 37.9301 33.9532 37.933 33.9445C37.9316 33.9439 37.9277 33.9423 37.9214 33.9398C37.6192 33.817 31.7878 31.4488 31.7299 24.6021C31.6729 18.9477 36.1869 16.1353 36.6826 15.8265C36.6997 15.8158 36.712 15.8081 36.7192 15.8034C34.003 11.8348 29.7737 11.2907 28.2667 11.2285C26.0655 11.0062 23.93 11.8468 22.1851 12.5337C21.0763 12.9702 20.1253 13.3445 19.4154 13.3445C18.6253 13.3445 17.6482 12.9571 16.5516 12.5223C15.1164 11.9532 13.4765 11.3029 11.7835 11.334C7.8621 11.3927 4.2434 13.6142 2.2239 17.1253C-1.8543 24.1953 1.1781 34.6717 5.151 40.4042C7.0957 43.2079 9.4081 46.3634 12.4492 46.2498C13.807 46.1954 14.7733 45.7843 15.7727 45.3591C16.9277 44.8677 18.1269 44.3575 20.0255 44.3575C21.8337 44.3575 22.9773 44.8519 24.0773 45.3275C25.1294 45.7823 26.1415 46.2198 27.6571 46.1911Z" fill="white"/>
</svg>
