<svg width="18" height="18" viewBox="0 0 18 18" fill="none" xmlns="http://www.w3.org/2000/svg">
<path fill-rule="evenodd" clip-rule="evenodd" d="M4.14163 2.33338C4.49446 1.33341 5.43957 0.664673 6.49996 0.664673C7.56035 0.664673 8.50546 1.33341 8.85829 2.33338H17.3333V4.00005H8.85829C8.50546 5.00002 7.56035 5.66876 6.49996 5.66876C5.43957 5.66876 4.49446 5.00002 4.14163 4.00005H0.666626V2.33338H4.14163ZM11.5 6.49801C10.4396 6.49801 9.49446 7.16675 9.14163 8.16672H0.666626V9.83338H9.14163C9.49446 10.8333 10.4396 11.5021 11.5 11.5021C12.5603 11.5021 13.5055 10.8333 13.8583 9.83338H17.3333V8.16672H13.8583C13.5055 7.16675 12.5603 6.49801 11.5 6.49801ZM6.49996 12.3313C5.43957 12.3313 4.49446 13.0001 4.14163 14H0.666626V15.6667H4.14163C4.49446 16.6667 5.43957 17.3354 6.49996 17.3354C7.56035 17.3354 8.50546 16.6667 8.85829 15.6667H17.3333V14H8.85829C8.50546 13.0001 7.56035 12.3313 6.49996 12.3313ZM7.33329 3.16671C7.33329 3.62695 6.9602 4.00005 6.49996 4.00005C6.03972 4.00005 5.66663 3.62695 5.66663 3.16671C5.66663 2.70648 6.03972 2.33338 6.49996 2.33338C6.9602 2.33338 7.33329 2.70648 7.33329 3.16671ZM11.5 9.83338C11.9602 9.83338 12.3333 9.46029 12.3333 9.00005C12.3333 8.53981 11.9602 8.16672 11.5 8.16672C11.0397 8.16672 10.6666 8.53981 10.6666 9.00005C10.6666 9.46029 11.0397 9.83338 11.5 9.83338ZM7.33329 14.8334C7.33329 15.2936 6.9602 15.6667 6.49996 15.6667C6.03972 15.6667 5.66663 15.2936 5.66663 14.8334C5.66663 14.3731 6.03972 14 6.49996 14C6.9602 14 7.33329 14.3731 7.33329 14.8334Z" fill="black"/>
</svg>
