<svg width="20" height="20" viewBox="0 0 20 20" fill="none" xmlns="http://www.w3.org/2000/svg">
<path fill-rule="evenodd" clip-rule="evenodd" d="M14.122 0.06C13.056 0.01 12.717 0 10 0C7.283 0 6.944 0.013 5.878 0.06C4.812 0.11 4.088 0.277 3.45 0.525C2.78243 0.775729 2.17767 1.16923 1.678 1.678C1.1688 2.17732 0.775236 2.78218 0.525 3.45C0.277 4.088 0.11 4.812 0.06 5.878C0.01 6.944 0 7.283 0 10C0 12.717 0.013 13.056 0.06 14.122C0.11 15.187 0.277 15.913 0.525 16.55C0.775931 17.2175 1.16941 17.8222 1.678 18.322C2.17753 18.8309 2.78233 19.2245 3.45 19.475C4.088 19.722 4.813 19.89 5.878 19.94C6.944 19.99 7.283 20 10 20C12.717 20 13.056 19.987 14.122 19.94C15.187 19.89 15.913 19.722 16.55 19.475C17.2173 19.2238 17.822 18.8303 18.322 18.322C18.8311 17.8226 19.2247 17.2178 19.475 16.55C19.722 15.912 19.89 15.187 19.94 14.122C19.99 13.056 20 12.717 20 10C20 7.283 19.987 6.944 19.94 5.878C19.89 4.813 19.722 4.087 19.475 3.45C19.224 2.78259 18.8305 2.1779 18.322 1.678C17.766 1.123 17.21 0.779 16.55 0.525C15.912 0.277 15.187 0.11 14.122 0.06ZM5 10C5 7.23858 7.23858 5 10 5C12.7614 5 15 7.23858 15 10C15 12.7614 12.7614 15 10 15C7.23858 15 5 12.7614 5 10ZM16.5 4.75C16.5 4.05964 15.9404 3.5 15.25 3.5C14.5596 3.5 14 4.05964 14 4.75C14 5.44036 14.5596 6 15.25 6C15.9404 6 16.5 5.44036 16.5 4.75ZM13 10C13 8.34315 11.6569 7 10 7C8.34315 7 7 8.34315 7 10C7 11.6569 8.34315 13 10 13C11.6569 13 13 11.6569 13 10Z" fill="#222124"/>
</svg>
