<svg width="20" height="20" viewBox="0 0 20 20" fill="none" xmlns="http://www.w3.org/2000/svg">
<path fill-rule="evenodd" clip-rule="evenodd" d="M0 10C0 15.523 4.477 20 10 20C15.523 20 20 15.523 20 10C20 4.477 15.523 0 10 0C4.477 0 0 4.477 0 10ZM6.903 11.163L6.89 11.17V11.171L4.393 10.391C3.853 10.226 3.849 9.854 4.513 9.588L14.246 5.828C14.811 5.596 15.131 5.888 14.948 6.616L13.291 14.438C13.175 14.994 12.84 15.127 12.374 14.87L9.824 12.982L8.636 14.13C8.63155 14.1343 8.62713 14.1385 8.62273 14.1427C8.50572 14.2552 8.4072 14.3499 8.226 14.374C8.039 14.4 7.885 14.344 7.773 14.033L6.903 11.163Z" fill="#222124"/>
</svg>
