<svg width="19" height="19" viewBox="0 0 19 19" fill="none" xmlns="http://www.w3.org/2000/svg">
<path fill-rule="evenodd" clip-rule="evenodd" d="M2.2619 0H16.7381C17.9853 0 19 1.01469 19 2.2619V16.7381C19 17.9853 17.9853 19 16.7381 19H2.2619C1.01469 19 0 17.9853 0 16.7381V2.2619C0 1.01469 1.01469 0 2.2619 0ZM14.6191 8.30481C14.7234 8.30434 14.8275 8.29906 14.9313 8.28898H14.9331V6.17636C13.2977 6.0568 11.9827 4.78299 11.8112 3.15219H9.99264L9.97364 12.0161C9.97364 13.1037 9.01324 13.9605 7.92571 13.9605C6.8384 13.9605 5.95695 13.079 5.95695 11.9917C5.95695 10.9044 6.8384 10.023 7.92571 10.023C7.98626 10.023 8.04481 10.031 8.1034 10.039C8.12361 10.0417 8.14382 10.0445 8.16412 10.0469V8.14602C8.14532 8.14484 8.12654 8.14353 8.10776 8.14222C8.04746 8.13802 7.98711 8.13381 7.92571 8.13381C5.7953 8.13381 4.06826 9.86085 4.06826 11.9913C4.06826 14.1217 5.7953 15.8487 7.92571 15.8487C10.0561 15.8487 11.7832 14.1217 11.7832 11.9913V6.77214C12.4095 7.72867 13.4758 8.30497 14.6191 8.30481Z" fill="#222124"/>
</svg>
