<svg width="20" height="16" viewBox="0 0 20 16" fill="none" xmlns="http://www.w3.org/2000/svg">
<path fill-rule="evenodd" clip-rule="evenodd" d="M20 8C20 8 20 4.28 19.543 2.498C19.292 1.516 18.55 0.742 17.605 0.476C15.896 0 10 0 10 0C10 0 4.107 0 2.395 0.476C1.454 0.738 0.711 1.513 0.457 2.498C0 4.28 0 8 0 8C0 8 0 11.72 0.457 13.502C0.708 14.484 1.45 15.258 2.395 15.524C4.107 16 10 16 10 16C10 16 15.896 16 17.605 15.524C18.546 15.262 19.289 14.487 19.543 13.502C20 11.72 20 8 20 8ZM14 8L8 11.5V4.5L14 8Z" fill="#222124"/>
</svg>
